<svg preserveAspectRatio="none" width="100%" height="100%" overflow="visible" style="display: block;" viewBox="0 0 291.751 119" fill="none" xmlns="http://www.w3.org/2000/svg">
<path id="Vector 2" d="M42.4681 0H0V105C0 112.732 6.26801 119 14 119H277.743C286.952 119 293.653 110.262 291.264 101.368L288.057 89.4309C286.414 83.3145 280.869 79.0629 274.536 79.0629H264.252L203.156 78.5438C199.828 78.5155 196.619 77.3026 194.104 75.1224L155.592 41.7332C153.046 39.5263 149.79 38.3113 146.421 38.3113H74.4953C68.2341 38.3113 62.7341 34.154 61.0262 28.1302L55.9372 10.1811C54.2293 4.15736 48.7293 0 42.4681 0Z" fill="url(#paint0_linear_0_47)"/>
<defs>
<linearGradient id="paint0_linear_0_47" x1="148" y1="0" x2="148" y2="119" gradientUnits="userSpaceOnUse">
<stop stop-color="#44386D" stop-opacity="0.2"/>
<stop offset="1" stop-color="#44386D" stop-opacity="0"/>
</linearGradient>
</defs>
</svg>
